<svg aria-hidden="true" style="position: absolute; width: 0; height: 0; overflow: hidden;" version="1.1" xmlns="http://www.w3.org/2000/svg" xmlns:xlink="http://www.w3.org/1999/xlink">
<defs>
<symbol id="icon-Sun" viewBox="0 0 32 32">
<path fill="none" stroke="#fff" stroke-width="2" stroke-miterlimit="4" stroke-linecap="round" stroke-linejoin="round" style="stroke: var(--color1, #fff)" d="M15.5 25.5c5.523 0 10-4.477 10-10s-4.477-10-10-10c-5.523 0-10 4.477-10 10s4.477 10 10 10z"></path>
<path fill="none" stroke="#fff" stroke-width="3" stroke-miterlimit="4" stroke-linecap="round" stroke-linejoin="round" style="stroke: var(--color1, #fff)" d="M25.314 5.686l0.182-0.182M5.504 25.496l0.182-0.182M15.5 1.612v-0.112M15.5 29.5v-0.112M1.612 15.5h-0.112M29.5 15.5h-0.112M5.686 5.686l-0.182-0.182M25.496 25.496l-0.182-0.182"></path>
</symbol>
<symbol id="icon-Vector" viewBox="0 0 32 32">
<path fill="none" stroke="#fff" stroke-width="2.2857" stroke-miterlimit="4" stroke-linecap="round" stroke-linejoin="round" style="stroke: var(--color1, #fff)" d="M1.185 16.627c0.552 7.65 7.256 13.873 15.279 14.215 5.661 0.238 10.723-2.317 13.761-6.342 1.258-1.649 0.583-2.748-1.519-2.376-1.028 0.178-2.086 0.253-3.191 0.208-7.502-0.297-13.638-6.372-13.669-13.546-0.015-1.931 0.399-3.758 1.151-5.421 0.828-1.842-0.169-2.718-2.086-1.931-6.075 2.481-10.232 8.407-9.726 15.195z"></path>
</symbol>
<symbol id="icon-Circle" viewBox="0 0 32 32">
<path fill="#fff" style="fill: var(--color1, #fff)" d="M4.708 4.708c6.26-6.26 16.391-6.28 22.627-0.043s6.217 16.367-0.043 22.627c-6.26 6.26-16.391 6.28-22.627 0.043s-6.217-16.367 0.043-22.627z"></path>
<path fill="none" stroke="#000" stroke-width="2.1333" stroke-miterlimit="4" stroke-linecap="round" stroke-linejoin="miter" style="stroke: var(--color2, #000)" d="M25.203 6.354c5.118 5.47 5.099 14.358-0.043 19.853"></path>
</symbol>
</defs>
</svg>
